# AST/ASF file generated using VICON BodyLanguage
# -----------------------------------------------
:version 1.10
:name VICON
:units
  mass 1.0
  length 0.45
  angle deg
:documentation
   .ast/.asf automatically generated from VICON data using
   VICON BodyBuilder and BodyLanguage model FoxedUp or BRILLIANT.MOD
:root
   order TX TY TZ RX RY RZ
   axis XYZ
   position 0 0 0  
   orientation 0 0 0 
:bonedata
  begin
     id 1 
     name lhipjoint
     direction 0.598477 -0.721498 0.348234 
     length 2.38516 
     axis 0 0 0  XYZ
  end
  begin
     id 2 
     name lfemur
     direction 0.34202 -0.939693 0  
     length 6.81097  
     axis 0 0 20  XYZ
    dof rx ry rz
    limits (-160.0 20.0)
           (-70.0 70.0)
           (-60.0 70.0)
  end
  begin
     id 3 
     name ltibia
     direction 0.34202 -0.939693 0   
     length 7.43697   
     axis 0 0 20   XYZ
    dof rx
    limits (-10.0 170.0)
  end
  begin
     id 4 
     name lfoot
     direction 0.0644912 -0.177188 0.982062   
     length 2.0384   
     axis -90 7.62852e-016 20   XYZ
    dof rx rz
    limits (-45.0 90.0)
           (-70.0 20.0)
  end
  begin
     id 5 
     name ltoes
     direction 1.53517e-011 -4.21905e-011 1   
     length 1.02854   
     axis -90 7.62852e-016 20   XYZ
    dof rx
    limits (-90.0 20.0)
  end
  begin
     id 6 
     name rhipjoint
     direction -0.591517 -0.726138 0.350474   
     length 2.36992  
     axis 0 0 0  XYZ 
  end
  begin
     id 7 
     name rfemur
     direction -0.34202 -0.939693 0   
     length 6.93503   
     axis 0 0 -20   XYZ
    dof rx ry rz
    limits (-160.0 20.0)
           (-70.0 70.0)
           (-70.0 60.0)
  end
  begin
     id 8 
     name rtibia
     direction -0.34202 -0.939693 0   
     length 7.45107   
     axis 0 0 -20   XYZ
    dof rx
    limits (-10.0 170.0)
 end
 begin
     id 9 
     name rfoot
     direction -0.0677555 -0.186157 0.980181   
     length 1.90244  
     axis -90 -7.62852e-016 -20   XYZ
    dof rx rz
    limits (-45.0 90.0)
           (-20.0 70.0)
  end
  begin
     id 10 
     name rtoes
     direction -1.53409e-011 -4.21428e-011 1   
     length 0.961454   
     axis -90 -7.62852e-016 -20   XYZ
    dof rx
    limits (-90.0 20.0)
  end
  begin
     id 11 
     name lowerback
     direction -0.0289484 0.992437 0.119291   
     length 1.96261   
     axis 0 0 0   XYZ
    dof rx ry rz
    limits (-20.0 45.0)
           (-30.0 30.0)
           (-30.0 30.0)
  end
  begin
     id 12 
     name upperback
     direction 0.0109352 0.999834 0.0146028   
     length 1.96894   
     axis 0 0 0   XYZ
    dof rx ry rz
    limits (-20.0 45.0)
           (-30.0 30.0)
           (-30.0 30.0)
  end
  begin
     id 13 
     name thorax
     direction 0.0232227 0.998895 -0.0408582   
     length 2.00029   
     axis 0 0 0   XYZ
    dof rx ry rz
    limits (-20.0 45.0)
           (-30.0 30.0)
           (-30.0 30.0)
  end
  begin
     id 14 
     name lowerneck
     direction -0.00291659 0.999583 0.0287188   
     length 1.72722   
     axis 0 0 0   XYZ
    dof rx ry rz
    limits (-20.0 45.0)
           (-30.0 30.0)
           (-30.0 30.0)
  end
  begin
     id 15 
     name upperneck
     direction 0.0277639 0.998467 -0.0478817   
     length 1.68525   
     axis 0 0 0   XYZ
    dof rx ry rz
    limits (-20.0 45.0)
           (-30.0 30.0)
           (-30.0 30.0)
  end
  begin
     id 16
     name head
     direction 0.00895921 0.999741 -0.020943  
     length 1.78934  
     axis 0 0 0   XYZ
    dof rx ry rz
    limits (-20.0 45.0)
           (-30.0 30.0)
           (-30.0 30.0)
  end
  begin
     id 17 
     name lclavicle
     direction 0.907972 0.393865 -0.143029  
     length 3.37543  
     axis 0 0 0   XYZ
    dof ry rz
    limits (-20.0 10.0)
           (0.0 20.0)
  end
  begin
     id 18 
     name lhumerus
     direction 1 -4.48915e-011 -1.10425e-027   
     length 4.94762   
     axis -180 -30 -90   XYZ
    dof rx ry rz
    limits (-60.0 90.0)
           (-90.0 90.0)
           (-90.0 90.0)
  end
  begin
     id 19
     name lradius
     direction 1 1.63657e-005 -9.44877e-006   
     length 3.11144   
     axis -180 -30 -90   XYZ
    dof rx
    limits (-10.0 170.0)
  end
  begin
     id 20
     name lwrist
     direction 1 -5.04565e-007 -1.8883e-005   
     length 1.55572   
     axis 1.22104e-015 90 90   XYZ
    dof ry
    limits (-180.0 0.0)
 end
  begin
     id 21 
     name lhand
     direction 1 -4.48949e-011 -2.20333e-027   
     length 0.686387   
     axis 1.40591e-015 90 90   XYZ
    dof rx rz
    limits (-90.0 90.0)
           (-45.0 45.0)
  end
  begin
     id 22 
     name lfingers
     direction 1 -4.49191e-011 -4.40665e-027   
     length 0.553383   
     axis 2.81182e-015 90 90   XYZ
    dof rx
    limits (0.0 90.0)
  end
  begin
     id 23
     name lthumb
     direction 0.707107 -6.35116e-011 0.707107   
     length 0.79455   
     axis -90 45 2.85299e-015   XYZ
    dof rx rz
    limits (-45.0 45.0)
           (-45.0 45.0)
  end
  begin
     id 24 
     name rclavicle
     direction -0.947168 0.319303 -0.0302977   
     length 3.53547  
     axis 0 0 0   XYZ 
    dof ry rz
    limits (-10.0 20.0)
           (-20.0 0.0)
  end
  begin
     id 25 
     name rhumerus
     direction -1 -0.000401632 0.000196042  
     length 4.77566   
     axis -180 30 90   XYZ
    dof rx ry rz
    limits (-90.0 60.0)
           (-90.0 90.0)
           (-90.0 90.0)
  end
  begin
     id 26 
     name rradius
     direction -1 -4.49012e-011 -4.87197e-027   
     length 3.21433   
     axis -180 30 90   XYZ
    dof rx
    limits (-10.0 170.0)
  end
  begin
     id 27 
     name rwrist
     direction -1 -4.48899e-011 -5.86351e-027   
     length 1.60716   
     axis 3.17445e-015 -90 -90   XYZ
    dof ry
    limits (-180.0 0.0)
  end
  begin
     id 28
     name rhand
     direction -0.999958 0.00678358 -0.00613214   
     length 0.625487   
     axis 7.48284e-015 -90 -90   XYZ
    dof rx rz
    limits (-90.0 90.0)
           (-45.0 45.0)
  end
  begin
     id 29
     name rfingers
     direction -1 -4.48756e-011 -2.3454e-026   
     length 0.505648   
     axis 1.49657e-014 -90 -90   XYZ
    dof rx
    limits (0.0 90.0)
  end
  begin
     id 30
     name rthumb
     direction -0.708559 0.00587598 0.705627   
     length 0.722099   
     axis -90 -45 -2.85299e-015   XYZ
    dof rx rz
    limits (-45.0 45.0)
           (-45.0 45.0)
  end
:hierarchy
  begin
    root lhipjoint rhipjoint lowerback
    lhipjoint lfemur
    lfemur ltibia
    ltibia lfoot
    lfoot ltoes
    rhipjoint rfemur
    rfemur rtibia
    rtibia rfoot
    rfoot rtoes
    lowerback upperback
    upperback thorax
    thorax lowerneck lclavicle rclavicle
    lowerneck upperneck
    upperneck head
    lclavicle lhumerus
    lhumerus lradius
    lradius lwrist
    lwrist lhand lthumb
    lhand lfingers
    rclavicle rhumerus
    rhumerus rradius
    rradius rwrist
    rwrist rhand rthumb
    rhand rfingers
  end

#!OML:ASF C:\Documents and Settings\Administrator\Desktop\SteveTeapot.ASF
:FULLY-SPECIFIED
:DEGREES
1416
root 0.938932 17.0147 -8.03435 27.7817 31.3478 -43.5172
lowerback -5.77467 4.03695 -5.92215
upperback -4.46503 5.82898 4.54586
thorax -2.50918 3.26288 8.26057
lowerneck 0.354557 -8.32048 -3.7698
upperneck -3.53345 -10.8471 28.9696
head 0.868559 -5.71136 9.44546
rclavicle -3.97569e-014 2.54444e-014
rhumerus -107.601 28.1586 -116.44
rradius 114.013
rwrist -91.8385
rhand -35.4328 -78.1738
rfingers 7.12502
rthumb -8.56243 107.98
lclavicle -3.97569e-014 2.54444e-014
lhumerus 53.2196 61.8929 23.4968
lradius 19.0823
lwrist -27.827
lhand -31.7796 -15.2998
lfingers 7.12502
lthumb -5.03594 14.6204
rfemur -5.49548 -14.3594 18.5619
rtibia 9.72247
rfoot -18.4338 -8.56115
rtoes -16.3606
lfemur -58.1452 -6.78705 43.0411
ltibia 31.992
lfoot -11.0271 20.8345
ltoes -15.8266
1417
root 0.939091 17.0132 -8.03938 27.8687 31.444 -43.5214
lowerback -5.84256 3.96218 -5.98011
upperback -4.42983 5.72934 4.49007
thorax -2.41513 3.20653 8.24113
lowerneck 0.650127 -8.34821 -3.68847
upperneck -3.91904 -10.7836 29.0062
head 0.691926 -5.73982 9.47209
rclavicle 1.19271e-013 5.725e-014
rhumerus -107.592 28.2808 -116.535
rradius 114.018
rwrist -91.9115
rhand -35.8337 -77.8208
rfingers 7.12502
rthumb -8.94931 107.611
lclavicle 1.19271e-013 5.725e-014
lhumerus 53.1797 61.7418 23.3794
lradius 19.1461
lwrist -27.9116
lhand -31.5919 -15.1277
lfingers 7.12502
lthumb -4.85473 14.7967
rfemur -5.56408 -14.4528 18.6305
rtibia 9.49113
rfoot -18.4798 -8.17078
rtoes -16.2383
lfemur -58.2891 -6.72436 43.1062
ltibia 31.9589
lfoot -10.9242 20.8761
ltoes -15.8213
1418
root 0.94091 17.012 -8.04274 27.9098 31.6031 -43.5778
lowerback -5.95474 3.9079 -5.92117
upperback -4.34773 5.65469 4.46448
thorax -2.24245 3.15551 8.19307
lowerneck 0.549119 -8.41173 -3.73801
upperneck -4.08131 -10.8481 29.0226
head 0.680595 -5.7798 9.47997
rclavicle 8.26944e-014 1.59028e-015
rhumerus -107.248 28.3238 -116.406
rradius 113.823
rwrist -91.9012
rhand -36.0413 -77.4352
rfingers 7.12502
rthumb -9.14966 107.217
lclavicle 8.26944e-014 1.59028e-015
lhumerus 53.534 61.7743 23.7547
lradius 19.179
lwrist -28.036
lhand -31.3958 -15.5442
lfingers 7.12502
lthumb -4.66535 14.3844
rfemur -5.61649 -14.5775 18.7929
rtibia 9.19878
rfoot -18.4712 -7.96308
rtoes -16.6803
lfemur -58.4531 -6.61654 43.1694
ltibia 31.9803
lfoot -10.9511 20.8243
ltoes -15.7787
1419
root 0.9434 17.0131 -8.0404 27.8279 31.6681 -43.6456
lowerback -5.94152 3.86945 -5.9282
upperback -4.26217 5.60079 4.49869
thorax -2.15413 3.12184 8.23635
lowerneck 0.374501 -8.40908 -3.84829
upperneck -4.05147 -10.8665 28.9882
head 0.729156 -5.77202 9.47545
rclavicle -2.22639e-014 -6.36111e-015
rhumerus -107.102 28.4246 -116.362
rradius 113.65
rwrist -91.8222
rhand -36.0214 -77.1714
rfingers 7.12502
rthumb -9.13041 106.954
lclavicle -2.22639e-014 -6.36111e-015
lhumerus 52.8817 61.5911 23.1325
lradius 19.227
lwrist -27.5615
lhand -31.4772 -15.2955
lfingers 7.12502
lthumb -4.74396 14.6314
rfemur -5.55457 -14.6075 18.9375
rtibia 8.92515
rfoot -18.4542 -7.81134
rtoes -17.1335
lfemur -58.4643 -6.59692 43.1582
ltibia 32.0576
lfoot -10.9449 20.8012
ltoes -16.0772
1420
root 0.946822 17.012 -8.03986 27.7725 31.6739 -43.6702
lowerback -5.84201 3.82017 -5.94059
upperback -4.22723 5.52839 4.49653
thorax -2.16005 3.08326 8.23374
lowerneck 0.140977 -8.34458 -3.76497
upperneck -3.8723 -10.8255 28.7969
head 0.796417 -5.71727 9.38097
rclavicle -6.20208e-014 4.77083e-014
rhumerus -107.012 28.5069 -116.303
rradius 113.594
rwrist -91.8162
rhand -35.8775 -77.1955
rfingers 7.12502
rthumb -8.9916 106.984
lclavicle -6.20208e-014 4.77083e-014
lhumerus 52.2655 61.3694 22.5312
lradius 19.3066
lwrist -27.3381
lhand -31.5646 -15.0731
lfingers 7.12502
lthumb -4.82836 14.8518
rfemur -5.40279 -14.6004 19.0453
rtibia 8.50519
rfoot -18.3682 -7.45652
rtoes -15.8876
lfemur -58.479 -6.6511 43.1562
ltibia 32.1588
lfoot -10.9301 20.8391
ltoes -16.5591
1421
root 0.951259 17.0097 -8.0423 27.894 31.7047 -43.5628
lowerback -5.86395 3.7141 -6.04481
upperback -4.21621 5.38861 4.49053
thorax -2.11998 3.01225 8.28849
lowerneck 0.101648 -8.24366 -3.67644
upperneck -3.844 -10.6883 28.5945
head 0.768076 -5.64299 9.30183
rclavicle 3.81667e-014 1.59028e-014
rhumerus -107.129 28.7613 -116.34
rradius 113.665
rwrist -91.8401
rhand -35.8529 -76.9278
rfingers 7.12502
rthumb -8.96787 106.717
lclavicle 3.81667e-014 1.59028e-014
lhumerus 51.8903 61.348 22.1994
lradius 19.3698
lwrist -27.3846
lhand -31.4801 -15.3889
lfingers 7.12502
lthumb -4.74672 14.5379
rfemur -5.30174 -14.6697 19.0923
rtibia 7.91956
rfoot -18.1619 -7.26683
rtoes -14.6438
lfemur -58.6515 -6.72617 43.1532
ltibia 32.2627
lfoot -10.9545 20.8959
ltoes -16.1119
1422
root 0.956922 17.0072 -8.04381 27.8268 31.8018 -43.7008
lowerback -5.85241 3.64798 -5.87851
upperback -4.17515 5.29096 4.54111
thorax -2.05287 2.95467 8.24751
lowerneck 0.294197 -8.21463 -3.94695
upperneck -4.06005 -10.6 28.7727
head 0.686299 -5.63228 9.43033
rclavicle -1.90833e-014 2.54444e-014
rhumerus -107.327 28.7887 -116.391
rradius 113.79
rwrist -91.6612
rhand -35.7836 -76.7567
rfingers 7.12502
rthumb -8.90098 106.549
lclavicle -1.90833e-014 2.54444e-014
lhumerus 51.5452 61.4332 21.9139
lradius 19.4174
lwrist -27.3461
lhand -31.6094 -15.83
lfingers 7.12502
lthumb -4.87161 14.094
rfemur -5.21279 -14.6944 19.3858
rtibia 7.42121
rfoot -17.7648 -7.46821
rtoes -15.7095
lfemur -58.7281 -6.7738 43.3394
ltibia 32.3448
lfoot -10.9208 20.9662
ltoes -16.0873
1423
root 0.962158 17.0055 -8.04284 27.6216 31.9026 -43.9729
lowerback -5.73483 3.65325 -5.57342
upperback -4.14059 5.28008 4.58019
thorax -2.05292 2.94014 8.10617
lowerneck 0.438866 -8.24893 -4.11879
upperneck -4.32753 -10.5901 28.8922
head 0.602153 -5.66182 9.51553
rclavicle 6.52014e-014 2.54444e-014
rhumerus -107.45 28.6142 -116.469
rradius 113.851
rwrist -91.4317
rhand -35.9266 -76.6789
rfingers 7.12502
rthumb -9.03895 106.465
lclavicle 6.52014e-014 2.54444e-014
lhumerus 51.7468 61.4958 22.1394
lradius 19.3701
lwrist -27.4603
lhand -31.6985 -16.4667
lfingers 7.12502
lthumb -4.95759 13.4553
rfemur -5.17133 -14.6661 19.7975
rtibia 7.09745
rfoot -17.6138 -7.38348
rtoes -16.1751
lfemur -58.6861 -6.69985 43.4948
ltibia 32.4023
lfoot -10.9557 20.8555
ltoes -16.486
1424
root 0.965322 17.0022 -8.04273 27.6219 31.9551 -44.0149
lowerback -5.75004 3.61694 -5.55064
upperback -4.09734 5.23001 4.61426
thorax -1.99108 2.91078 8.13236
lowerneck 0.414387 -8.26254 -4.12622
upperneck -4.52032 -10.5703 28.7723
head 0.541308 -5.66605 9.47919
rclavicle 7.63333e-014 1.74931e-014
rhumerus -107.655 29.1513 -116.653
rradius 113.961
rwrist -91.9091
rhand -36.1451 -76.6182
rfingers 7.12502
rthumb -9.24981 106.395
lclavicle 7.63333e-014 1.74931e-014
lhumerus 51.4338 61.4053 21.8705
lradius 19.4188
lwrist -27.2565
lhand -31.4884 -16.6384
lfingers 7.12502
lthumb -4.75479 13.2883
rfemur -5.29856 -14.6866 20.0339
rtibia 6.90469
rfoot -17.5727 -7.41792
rtoes -16.1877
lfemur -58.7232 -6.63269 43.499
ltibia 32.4044
lfoot -11.0033 20.7597
ltoes -16.5039
